<?xml version="1.0" standalone="no"?>
<!DOCTYPE svg PUBLIC "-//W3C//DTD SVG 20010904//EN"
 "http://www.w3.org/TR/2001/REC-SVG-20010904/DTD/svg10.dtd">
<svg version="1.0" xmlns="http://www.w3.org/2000/svg"
 width="512.000000pt" height="512.000000pt" viewBox="0 0 512.000000 512.000000"
 preserveAspectRatio="xMidYMid meet">
<metadata>
Created by potrace 1.14, written by Peter Selinger 2001-2017
</metadata>
<g transform="translate(0.000000,512.000000) scale(0.100000,-0.100000)"
fill="#000000" stroke="none">
<path d="M2214 3808 c-149 -101 -275 -191 -280 -201 -18 -37 -287 -477 -290
-475 -4 4 -12 52 -20 108 -3 25 -7 52 -9 60 -3 8 -7 33 -10 55 -3 22 -7 51
-10 65 -2 14 -7 36 -10 50 -2 14 -7 43 -10 65 -3 23 -8 52 -10 65 -3 14 -10
54 -15 90 -6 36 -12 72 -13 80 -2 8 -7 35 -11 60 -4 25 -9 54 -11 65 -2 11 -4
27 -5 35 -2 12 -95 -527 -115 -665 -3 -22 -8 -47 -10 -55 -2 -8 -7 -35 -10
-60 -3 -25 -8 -52 -10 -60 -2 -8 -6 -33 -10 -55 -9 -67 -17 -110 -22 -118 -3
-4 -20 18 -40 50 -55 92 -134 192 -214 271 -75 75 -234 188 -303 217 l-39 16
30 -38 c56 -70 121 -181 173 -290 29 -59 55 -115 59 -123 7 -13 25 -68 80
-250 7 -23 -1 -31 -118 -109 -249 -166 -248 -165 -256 -217 -3 -25 -8 -54 -10
-63 -4 -21 -65 -376 -70 -411 -2 -14 -11 -65 -19 -115 -9 -49 -18 -106 -21
-125 -3 -19 -9 -51 -14 -70 -5 -26 -1 -51 17 -100 13 -36 42 -117 64 -180 23
-63 44 -118 47 -122 3 -3 26 -9 51 -13 25 -3 56 -7 70 -10 14 -2 56 -7 93 -10
37 -4 76 -8 87 -10 10 -2 51 -7 91 -10 40 -4 81 -8 90 -10 10 -2 46 -6 81 -10
35 -3 77 -8 93 -10 17 -3 53 -7 80 -10 28 -3 69 -8 93 -10 23 -3 61 -7 85 -10
23 -2 65 -7 92 -11 65 -8 107 -6 275 11 25 3 74 7 110 10 36 3 83 7 105 10 63
6 143 14 230 21 44 3 87 8 95 9 9 2 58 6 110 10 52 3 102 8 110 10 8 2 62 7
120 10 58 4 123 9 145 10 22 2 78 7 125 10 47 4 96 8 110 10 14 2 75 7 135 10
l110 7 135 70 c231 121 342 179 415 218 39 20 131 69 205 108 282 148 305 161
308 175 2 12 -58 457 -72 534 -2 10 -7 43 -11 73 -3 30 -8 66 -10 80 -10 61
-34 229 -40 270 -3 25 -8 56 -10 70 -2 14 -7 45 -10 70 -3 25 -10 72 -15 105
-5 33 -12 75 -14 93 -3 19 -6 35 -8 36 -2 2 -48 36 -103 77 -55 41 -109 82
-120 91 -11 9 -124 95 -252 190 l-231 174 -249 62 c-636 158 -898 222 -908
222 -6 0 -132 -82 -281 -182z"/>
</g>
</svg>
